<svg width="100" height="125" viewBox="0 0 100 125" fill="none" xmlns="http://www.w3.org/2000/svg">
<path d="M50.0013 89.8065L48.1429 83.4481C45.6126 74.7869 40.1419 67.2635 32.3206 61.6922C24.0325 55.7889 19.2445 46.1932 19.5111 36.0233C19.9202 20.3944 32.4476 7.38362 48.0306 6.40315C56.5482 5.86604 64.6732 8.7801 70.8753 14.6043C76.9925 20.3485 80.5003 28.4539 80.5003 36.8416C80.5003 46.9246 75.5218 56.3445 67.182 62.0389C59.8734 67.0291 54.432 74.6307 51.8587 83.4422L50.0013 89.8065ZM50.0169 9.34065C49.4202 9.34065 48.8206 9.35921 48.2181 9.3973C34.1722 10.2811 22.8792 22.0106 22.5091 36.1014C22.2699 45.2723 26.5882 53.9256 34.0609 59.2489C41.5033 64.5506 46.9642 71.5184 49.9964 79.5408C53.0531 71.369 58.472 64.3543 65.4906 59.5614C73.0111 54.4266 77.5003 45.9334 77.5003 36.8416C77.5003 29.1678 74.4183 22.0467 68.8216 16.7918C63.6673 11.951 57.0462 9.34065 50.0169 9.34065Z" fill="black"/>
</svg>
