<svg width="230" height="355" viewBox="0 0 230 355" fill="none" xmlns="http://www.w3.org/2000/svg">
<g clip-path="url(#clip0_56_15)">
<path d="M0 116.982C2.26836 115.588 4.751 114.581 7.34739 114C15.4981 113.433 23.6781 113.433 31.8288 114C44.7388 115.252 57.857 115.55 70.4992 119.695C76.1124 121.55 81.8609 122.966 87.6927 123.929C97.2413 125.45 105.243 120.948 112.888 116.087C142.783 96.6447 164.796 70.7615 175.534 36.2306C178.509 26.2709 179.966 15.7447 182.376 5.54642C182.852 3.5187 184.101 0.566581 185.588 0.149109C186.741 -0.022226 187.916 0.0568601 189.035 0.381001C190.154 0.705142 191.19 1.26675 192.073 2.02773C197.976 7.66458 201.776 15.157 202.841 23.2591C203.92 30.6785 203.526 38.2383 201.681 45.5044C201.531 47.2207 201.531 48.9469 201.681 50.6632C204.656 49.6493 207.839 48.8442 210.605 47.6812C213.372 46.5183 216.019 46.2499 217.388 48.8144C217.959 49.8576 218.309 51.0079 218.417 52.1932C218.524 53.3784 218.387 54.5732 218.012 55.7027C214.205 63.6943 209.832 71.4473 205.578 79.2003C204.537 81.0491 203.139 82.6892 201.384 85.1642L209.148 83.7925C209.505 83.7925 209.802 83.3452 210.159 83.2856C213.134 82.8085 216.733 82.0332 218.458 85.0151C220.184 87.9971 218.458 90.5317 215.87 92.6787C208.464 99.2688 201.176 106.038 193.858 112.717C193.412 113.135 193.025 113.612 192.222 114.536L195.851 114.805C197.814 115.013 199.807 114.536 200.521 117.518C201.235 120.5 201.354 122.051 198.707 123.601C190.943 128.134 183.239 132.756 175.475 137.318C173.958 138.183 172.5 138.958 170.477 139.942C172.887 142.417 175.207 144.952 172.797 148.441C172.13 149.477 171.195 150.312 170.091 150.856C164.32 153.242 158.46 155.478 152.421 157.834C153.343 161.442 150.547 163.44 147.632 164.901C144.104 166.584 140.454 168 136.715 169.136C134.811 169.762 134.187 170.09 134.781 172.446C138.911 190.219 140.285 208.524 138.857 226.717C137.697 245.712 131.926 263.902 126.631 282.092C126.333 283.165 123.656 284.119 122.109 283.94C121.158 283.94 119.581 281.316 119.849 280.243C121.068 274.667 122.823 269.21 124.34 263.723C130.676 241.448 133.978 218.994 131.004 195.735C129.933 187.325 128.267 179.006 126.661 170.656C126.445 169.952 126.375 169.21 126.454 168.477C126.534 167.744 126.761 167.036 127.123 166.394C127.485 165.752 127.974 165.191 128.559 164.745C129.144 164.298 129.814 163.976 130.528 163.798C134.335 162.486 138.232 161.383 141.95 159.832C142.483 159.472 142.935 159.005 143.278 158.461C143.621 157.917 143.847 157.308 143.943 156.671C144.687 152.795 146.502 151.184 151.796 149.872C155.901 148.829 159.917 147.487 164.439 146.115C162.624 144.654 161.018 143.908 160.304 142.656C159.977 142.023 159.788 141.328 159.749 140.616C159.71 139.904 159.822 139.192 160.078 138.527C160.334 137.862 160.728 137.259 161.233 136.757C161.739 136.256 162.345 135.868 163.011 135.619L187.284 122.975C188.1 122.459 188.876 121.88 189.604 121.246C188.313 121.166 187.03 120.987 185.767 120.709C181.87 119.457 181.275 114.745 184.785 111.465C190.437 106.366 196.238 101.416 201.949 96.3763C203.42 95.2277 204.585 93.7321 205.34 92.0227C203.079 92.5594 200.819 92.9769 198.588 93.5733C197.388 94.1629 196.012 94.2818 194.73 93.9067C193.448 93.5315 192.352 92.6894 191.657 91.5456C189.812 88.5636 191.33 86.6552 192.698 84.5977C199.242 74.7871 205.846 65.0361 212.45 55.2554L211.289 54.0626C207.606 55.8199 204.039 57.812 200.61 60.0265C199.769 60.7091 198.719 61.0816 197.636 61.0816C196.553 61.0816 195.503 60.7091 194.661 60.0265C192.549 58.9828 192.936 57.5515 193.204 55.6132C194.767 46.7404 195.76 37.7761 196.178 28.7757C196.178 23.5275 193.828 18.2197 192.222 13.0311C191.806 11.6594 190.348 10.5859 189.247 9.30367C187.492 16.6989 185.856 23.6766 184.19 30.6245C179.94 48.5456 172.163 65.4355 161.315 80.3037C147.207 99.6315 128.897 115.488 107.772 126.673C103.199 129.213 98.1082 130.676 92.887 130.95C87.6658 131.224 82.4509 130.302 77.6384 128.253C65.9175 123.826 53.565 121.31 41.0502 120.798C31.9478 120.321 22.8156 119.516 13.6834 119.099C11.036 119.099 8.35877 119.814 5.71133 119.785C3.79749 119.557 1.913 119.127 0.0892387 118.502L0 116.982Z" fill="white"/>
<path d="M121.514 82.4805C120.741 81.7946 119.759 81.3473 119.73 80.8106C119.704 79.7712 119.95 78.7432 120.444 77.8286C124.935 70.3141 129.933 63.068 133.949 55.3448C137.25 48.9634 139.481 42.0453 142.188 35.336C142.516 34.5309 142.634 33.4574 143.259 32.9504C143.884 32.4435 145.817 31.3104 146.234 31.6384C146.65 31.9664 148.376 34.2028 148.078 34.9781C141.593 51.0508 136.536 67.7795 123.656 80.5124C123.061 81.1088 122.318 81.735 121.514 82.4805Z" fill="white"/>
<path d="M222.504 128.76C225.836 131.444 225.776 131.742 222.861 134.724C214.614 143.404 204.945 150.605 194.274 156.015C192.222 156.844 190.089 157.454 187.909 157.834L187.463 156.641L222.504 128.76Z" fill="white"/>
<path d="M230 151.632C224.959 157.769 218.286 162.35 210.754 164.842C209.862 165.11 208.582 164.037 207.482 163.589C208 162.688 208.629 161.856 209.356 161.114C214.115 157.596 219.172 154.435 223.694 150.648C226.311 148.441 227.977 148.381 230 151.632Z" fill="white"/>
<path d="M114.822 66.9446C114.993 65.299 115.311 63.6723 115.773 62.084C118.034 56.5972 120.354 51.1403 122.883 45.7728C123.389 44.6993 124.876 44.1029 125.857 43.2978C126.512 44.5204 128.029 46.2797 127.702 46.9059C124.727 52.8698 121.752 58.8337 118.51 64.7976C118.123 65.5729 116.755 65.8413 114.822 66.9446Z" fill="white"/>
</g>
<defs>
<clipPath id="clip0_56_15">
<rect width="230" height="355" fill="white"/>
</clipPath>
</defs>
</svg>
