<svg width="96" height="148" viewBox="0 0 96 148" fill="none" xmlns="http://www.w3.org/2000/svg">
<g clip-path="url(#clip0_1_21)">
<path d="M0 48.7698C0.946795 48.1889 1.98303 47.7688 3.06674 47.5266C6.46876 47.2904 9.88303 47.2904 13.2851 47.5266C18.6736 48.0487 24.149 48.173 29.4258 49.9011C31.7687 50.6746 34.168 51.2648 36.6022 51.6664C40.5877 52.3004 43.9276 50.4232 47.1185 48.3968C59.5965 40.2913 68.7843 29.5005 73.2664 15.1046C74.508 10.9524 75.1164 6.56397 76.1221 2.31231C76.3208 1.46695 76.8422 0.236209 77.463 0.0621649C77.9439 -0.00926512 78.4345 0.023706 78.9015 0.158841C79.3685 0.293976 79.801 0.528113 80.1697 0.845365C82.6334 3.19538 84.2195 6.31897 84.6643 9.69677C85.1144 12.7899 84.9498 15.9416 84.18 18.9709C84.1175 19.6864 84.1175 20.406 84.18 21.1216C85.4216 20.6989 86.7501 20.3632 87.9048 19.8784C89.0595 19.3935 90.1645 19.2817 90.7357 20.3508C90.9741 20.7857 91.1204 21.2653 91.1653 21.7594C91.2101 22.2536 91.1526 22.7516 90.9964 23.2225C89.4071 26.5542 87.582 29.7865 85.8065 33.0187C85.372 33.7895 84.7884 34.4732 84.0559 35.5051L87.2964 34.9332C87.4454 34.9332 87.5696 34.7467 87.7186 34.7219C88.9602 34.523 90.4625 34.1998 91.1826 35.4429C91.9028 36.6861 91.1826 37.7428 90.1024 38.6379C87.0109 41.3853 83.969 44.2073 80.9147 46.992C80.7284 47.1661 80.567 47.365 80.2318 47.7504L81.7465 47.8622C82.566 47.9493 83.3978 47.7504 83.6958 48.9935C83.9938 50.2367 84.0435 50.8832 82.9384 51.5296C79.6979 53.4192 76.4822 55.3462 73.2416 57.2482C72.6084 57.6087 72 57.932 71.1557 58.3422C72.1614 59.374 73.1299 60.4307 72.1242 61.8853C71.8457 62.3173 71.4552 62.6654 70.9943 62.8922C68.5856 63.8868 66.1397 64.8192 63.6192 65.8013C64.0041 67.3055 62.837 68.1384 61.6203 68.7476C60.1476 69.4493 58.6245 70.0394 57.0636 70.5129C56.269 70.774 56.0083 70.9107 56.2566 71.8928C57.9802 79.3026 58.5539 86.934 57.9576 94.5186C57.4734 102.438 55.0647 110.021 52.8546 117.604C52.7305 118.052 51.613 118.45 50.9674 118.375C50.5701 118.375 49.9121 117.281 50.0238 116.834C50.5329 114.509 51.2654 112.234 51.8986 109.946C54.5432 100.66 55.9214 91.2988 54.6798 81.602C54.2328 78.0963 53.5375 74.6278 52.867 71.1469C52.777 70.8531 52.7477 70.544 52.7809 70.2385C52.814 69.9329 52.9091 69.6373 53.0601 69.3698C53.2111 69.1022 53.415 68.8683 53.6593 68.6822C53.9037 68.4962 54.1833 68.3619 54.4811 68.2876C56.0704 67.7406 57.6968 67.2806 59.2488 66.6342C59.471 66.4841 59.6596 66.2895 59.8028 66.0627C59.946 65.8359 60.0406 65.5817 60.0807 65.3164C60.3911 63.7003 61.1485 63.029 63.3585 62.482C65.0719 62.0469 66.7481 61.4874 68.6353 60.9156C67.8779 60.3064 67.2074 59.9956 66.9095 59.4735C66.7731 59.2096 66.6941 58.9196 66.6779 58.6229C66.6616 58.3262 66.7085 58.0294 66.8153 57.7521C66.922 57.4748 67.0864 57.2233 67.2974 57.0143C67.5084 56.8053 67.7613 56.6435 68.0393 56.5396L78.1707 51.2685C78.5113 51.0531 78.8351 50.8121 79.1392 50.5475C78.6003 50.5143 78.0648 50.4395 77.5375 50.3237C75.911 49.8016 75.6627 47.8374 77.1278 46.4699C79.4868 44.3441 81.9079 42.2804 84.2918 40.1794C84.9059 39.7006 85.3922 39.077 85.7072 38.3644C84.7636 38.5882 83.82 38.7622 82.8888 39.0108C82.3882 39.2567 81.8139 39.3062 81.2786 39.1498C80.7434 38.9934 80.2858 38.6423 79.9959 38.1655C79.2261 36.9223 79.8593 36.1267 80.4304 35.2689C83.1619 31.1788 85.9183 27.1137 88.6746 23.036L88.1904 22.5388C86.6531 23.2714 85.1643 24.1019 83.7331 25.0251C83.3817 25.3097 82.9434 25.465 82.4915 25.465C82.0395 25.465 81.6013 25.3097 81.2499 25.0251C80.3683 24.59 80.5298 23.9933 80.6415 23.1852C81.2939 19.4861 81.7086 15.7489 81.8831 11.9966C81.8831 9.80866 80.9022 7.59581 80.2318 5.43268C80.058 4.86082 79.4496 4.41328 78.9902 3.87871C78.2576 6.96179 77.5748 9.87082 76.8795 12.7674C75.1055 20.2387 71.8594 27.2802 67.3316 33.4787C61.443 41.5365 53.8006 48.1471 44.9829 52.8101C43.0742 53.8692 40.9495 54.4791 38.7702 54.5932C36.5909 54.7074 34.4143 54.3229 32.4056 53.469C27.5134 51.6234 22.3576 50.5741 17.134 50.361C13.3347 50.1621 9.52302 49.8265 5.71133 49.6524C4.60631 49.6524 3.48888 49.9508 2.38386 49.9384C1.58504 49.8434 0.79847 49.6642 0.0372475 49.4038L0 48.7698Z" fill="black"/>
<path d="M50.7191 34.3862C50.3963 34.1003 49.9865 33.9138 49.9741 33.69C49.9635 33.2567 50.0663 32.8282 50.2721 32.4469C52.1469 29.3141 54.2328 26.2931 55.9089 23.0733C57.2871 20.4129 58.2183 17.5288 59.3482 14.7316C59.4847 14.396 59.5344 13.9484 59.7951 13.7371C60.0559 13.5257 60.8629 13.0533 61.0367 13.1901C61.2106 13.3268 61.9307 14.2592 61.8065 14.5824C59.0998 21.2832 56.9891 28.2574 51.613 33.5657C51.3647 33.8144 51.0543 34.0754 50.7191 34.3862Z" fill="black"/>
<path d="M92.8712 53.6803C94.2618 54.7992 94.2369 54.9235 93.0202 56.1666C89.5778 59.7853 85.5423 62.7874 81.0885 65.0429C80.2319 65.3886 79.3413 65.6428 78.4314 65.8013L78.2452 65.304L92.8712 53.6803Z" fill="black"/>
<path d="M96 63.2155C93.8957 65.7743 91.1105 67.6838 87.9669 68.7227C87.5944 68.8346 87.0605 68.3871 86.6011 68.2006C86.8172 67.8249 87.08 67.4782 87.3833 67.1688C89.3699 65.7018 91.4806 64.384 93.3678 62.8052C94.4604 61.8853 95.1557 61.8604 96 63.2155Z" fill="black"/>
<path d="M47.9255 27.9093C47.9969 27.2233 48.1299 26.5451 48.3228 25.8829C49.2664 23.5955 50.2349 21.3205 51.2902 19.0827C51.5013 18.6352 52.1221 18.3866 52.5318 18.0509C52.805 18.5606 53.4382 19.2941 53.3016 19.5551C52.06 22.0415 50.8184 24.5278 49.4651 27.0142C49.3037 27.3374 48.7325 27.4493 47.9255 27.9093Z" fill="black"/>
</g>
<defs>
<clipPath id="clip0_1_21">
<rect width="96" height="148" fill="white"/>
</clipPath>
</defs>
</svg>
